[Header]
FileType HTR
DataType HTRS
FileVersion 1
NumSegments 22
NumFrames 6
DataFrameRate 24
EulerRotationOrder ZYX
CalibrationUnits mm
RotationUnits Degrees
GlobalAxisofGravity Y
BoneLengthAxis Y
ScaleFactor 1.0
[SegmentNames&Hierarchy]
reference	GLOBAL
Hips	reference
Spine	Hips
Spine1	Spine
Neck	Spine1
Head	Neck
LeftShoulder	Spine1
LeftArm	LeftShoulder
LeftForeArm	LeftArm
LeftHand	LeftForeArm
RightShoulder	Spine1
RightArm	RightShoulder
RightForeArm	RightArm
RightHand	RightForeArm
LeftUpLeg	Hips
LeftLeg	LeftUpLeg
LeftFoot	LeftLeg
LeftToeBase	LeftFoot
RightUpLeg	Hips
RightLeg	RightUpLeg
RightFoot	RightLeg
RightToeBase	RightFoot
[BasePosition]
reference	0	0	0	0	0	0	1
Hips	0	0	0	0	0	0	1
Spine	0	0	0	0	-0	90	1
Spine1	0	0	0	0	0	0	1
Neck	0	0	0	-7.352327771	-7.352327771	90	1
Head	0	0	0	0	-0	90	1
LeftShoulder	0	0	0	0	0	0	1
LeftArm	0	0	0	0	0	0	1
LeftForeArm	0	0	0	0	0	0	1
LeftHand	0	0	0	0	0	0	1
RightShoulder	0	0	0	0	-0	180	1
RightArm	0	0	0	0	-0	180	1
RightForeArm	0	0	0	0	-0	180	1
RightHand	0	0	0	0	-0	180	1
LeftUpLeg	0	0	0	0	-0	-90	1
LeftLeg	0	0	0	0	-0	-90	1
LeftFoot	0	0	0	66.57146043	-66.57146043	-90	1
LeftToeBase	0	0	0	0	-90	0	1
RightUpLeg	0	0	0	0	-0	-90	1
RightLeg	0	0	0	0	-0	-90	1
RightFoot	0	0	0	66.57146043	-66.57146043	-90	1
RightToeBase	0	0	0	0	-90	0	1
[reference]
46	0	0	0	0	-0	0	1.0
47	0	0	0	0	-0	0	1.0
48	0	0	0	0	-0	0	1.0
49	0	0	0	0	-0	0	1.0
50	0	0	0	0	-0	0	1.0
51	0	0	0	0	-0	0	1.0
[Hips]
46	-0.2148493379	8.625247955	2.221081734	-1.235946655	-117.1968231	4.46850872	1.0
47	-0.1086352617	8.616764069	1.910577059	-0.5339547992	-115.5488129	4.299666405	1.0
48	0.02939305454	8.543058395	1.582769156	1.667860627	-113.9290543	2.364571333	1.0
49	0.1982799917	8.437399864	1.224359989	3.234313965	-112.9261703	1.249465942	1.0
50	0.3839731812	8.394356728	0.8398656845	3.320978165	-112.4006042	2.105555058	1.0
51	0.5242411494	8.374097824	0.4764096439	3.45115447	-109.6851959	1.41465652	1.0
[Spine]
46	0	0.7457100153	0	-9.772343636	2.61648941	-91.00301361	1.0
47	0	0.7457100153	0	-9.377070427	1.673217893	-89.70211792	1.0
48	0	0.7457100153	0	-9.193387985	1.649739385	-90.14398193	1.0
49	0	0.7457100153	0	-9.050636292	2.486734152	-90.56557465	1.0
50	0	0.7457100153	0	-9.556138039	4.176591873	-90.31968689	1.0
51	0	0.7457100153	0	-8.502872467	4.392708302	-89.90489197	1.0
[Spine1]
46	0	2.140589952	0	5.509683609	0.899005115	0.1715798974	1.0
47	0	2.140589952	0	2.914800882	0.6094002724	-1.882095814	1.0
48	0	2.140589952	0	2.729765415	0.6415880919	-2.732705593	1.0
49	0	2.140589952	0	3.181784868	0.9315450191	-3.110735893	1.0
50	0	2.140589952	0	4.833091736	1.563753247	-3.701977253	1.0
51	0	2.140589952	0	5.32063818	1.689561367	-4.53990984	1.0
[Neck]
46	0	2.32246995	0	-8.008993149	7.688966751	-87.80012512	1.0
47	0	2.32246995	0	-6.381850719	8.739422798	-87.69839478	1.0
48	0	2.32246995	0	-7.547039986	9.024563789	-87.27137756	1.0
49	0	2.32246995	0	-10.01719475	8.69065094	-89.83196259	1.0
50	0	2.32246995	0	-13.43975735	8.043564796	-90.91729736	1.0
51	0	2.32246995	0	-15.21290779	7.249913692	-92.28546143	1.0
[Head]
46	0	1.409579992	0.1818799973	-1.838232875	0.4900349081	-91.36727905	1.0
47	0	1.409579992	0.1818799973	-2.223117828	1.589935541	-91.21989441	1.0
48	0	1.409579992	0.1818799973	-2.742453814	2.008837938	-92.74780273	1.0
49	0	1.409579992	0.1818799973	-3.650908232	1.36023891	-89.76173401	1.0
50	0	1.409579992	0.1818799973	-3.431126595	0.766982913	-89.97001648	1.0
51	0	1.409579992	0.1818799973	-3.795055866	0.03460323811	-89.77991486	1.0
[LeftShoulder]
46	0.3668199778	1.946700096	-0.02662999928	-16.29402542	-11.36264992	-1.313881159	1.0
47	0.3668199778	1.946700096	-0.02662999928	-13.83560658	-11.25635815	-2.445367813	1.0
48	0.3668199778	1.946700096	-0.02662999928	-16.33094406	-11.28546715	-1.290406108	1.0
49	0.3668199778	1.946700096	-0.02662999928	-17.19040489	-11.26528645	-1.598459721	1.0
50	0.3668199778	1.946700096	-0.02662999928	-16.91484451	-11.33289719	-1.968081355	1.0
51	0.3668199778	1.946700096	-0.02662999928	-15.91847801	-11.43888664	-2.974933147	1.0
[LeftArm]
46	1.140689969	0	0	47.40381622	11.37013054	-71.68158722	1.0
47	1.140689969	0	0	47.10604477	9.590323448	-69.89500427	1.0
48	1.140689969	0	0	46.75157166	10.28822517	-70.46547699	1.0
49	1.140689969	0	0	46.75746918	10.14540291	-70.20451355	1.0
50	1.140689969	0	0	46.47492981	9.478010178	-70.6843338	1.0
51	1.140689969	0	0	46.16249084	9.207601547	-70.75782013	1.0
[LeftForeArm]
46	2.749800205	0	0	-139.1296234	-46.26028442	158.3000488	1.0
47	2.749800205	0	0	-136.9283295	-44.79188919	157.6190491	1.0
48	2.749800205	0	0	-137.1428528	-45.09240723	157.9234161	1.0
49	2.749800205	0	0	-137.2658081	-45.41677094	158.0217743	1.0
50	2.749800205	0	0	-137.5059357	-45.77710342	157.7972107	1.0
51	2.749800205	0	0	-138.3745728	-46.26821136	157.9766846	1.0
[LeftHand]
46	2.295179844	0	0	-8.258653641	-21.92959023	4.142326355	1.0
47	2.295179844	0	0	-9.274200439	-21.46278954	5.591553211	1.0
48	2.295179844	0	0	-8.755243301	-21.59718323	6.709199905	1.0
49	2.295179844	0	0	-8.547954559	-21.96148491	7.727830887	1.0
50	2.295179844	0	0	-8.671104431	-21.86157799	6.79417944	1.0
51	2.295179844	0	0	-8.59544754	-21.66165543	6.519865036	1.0
[RightShoulder]
46	-0.3601199985	1.946700096	-0.02662999928	-8.205724716	3.782230139	175.6950073	1.0
47	-0.3601199985	1.946700096	-0.02662999928	-7.45418787	4.994490623	176.4417419	1.0
48	-0.3601199985	1.946700096	-0.02662999928	-8.493919373	4.504720211	175.6070862	1.0
49	-0.3601199985	1.946700096	-0.02662999928	-8.78420639	4.679297924	175.242691	1.0
50	-0.3601199985	1.946700096	-0.02662999928	-7.887566566	4.999703407	175.5279846	1.0
51	-0.3601199985	1.946700096	-0.02662999928	-7.706364632	5.22832489	175.634079	1.0
[RightArm]
46	-1.140689969	0	0	58.03755188	-1.149454594	-103.8063278	1.0
47	-1.140689969	0	0	57.29457092	0.1513604671	-105.2577591	1.0
48	-1.140689969	0	0	57.53297424	0.3828192651	-104.7471771	1.0
49	-1.140689969	0	0	58.51491165	0.1482407451	-103.6716766	1.0
50	-1.140689969	0	0	59.72784424	0.528973341	-102.1800537	1.0
51	-1.140689969	0	0	59.81663132	-0.5376033783	-101.1707535	1.0
[RightForeArm]
46	-2.749800205	0	0	-105.9311905	46.77179718	-323.8067627	1.0
47	-2.749800205	0	0	-106.8975983	47.21559143	-325.0404663	1.0
48	-2.749800205	0	0	-106.2073441	46.83525085	-325.184845	1.0
49	-2.749800205	0	0	-103.1888428	45.50736618	-323.5227051	1.0
50	-2.749800205	0	0	-99.45392609	44.39000702	-320.7632446	1.0
51	-2.749800205	0	0	-98.74102783	43.80992508	-319.5598755	1.0
[RightHand]
46	-2.295179844	0	0	-3.172872066	19.15958595	-198.1682587	1.0
47	-2.295179844	0	0	-1.684094191	18.78608513	-199.4060211	1.0
48	-2.295179844	0	0	-1.333059669	18.95000839	-199.7339172	1.0
49	-2.295179844	0	0	-2.845723629	19.2232666	-199.5720367	1.0
50	-2.295179844	0	0	-5.150221825	19.20024109	-199.9912415	1.0
51	-2.295179844	0	0	-7.051745415	19.25199318	-199.4524841	1.0
[LeftUpLeg]
46	0.9094099998	0	0	7.074347496	4.709589005	97.33515167	1.0
47	0.9094099998	0	0	6.630976677	4.479020119	99.27159119	1.0
48	0.9094099998	0	0	5.690880299	5.303294659	100.7344971	1.0
49	0.9094099998	0	0	4.134369373	4.708125591	102.8337326	1.0
50	0.9094099998	0	0	2.818150282	3.351361752	105.7792358	1.0
51	0.9094099998	0	0	1.747672439	-0.8082645535	107.5052261	1.0
[LeftLeg]
46	0	-4.498080254	0	4.899240017	0.0038728863	85.65022278	1.0
47	0	-4.498080254	0	4.316802979	0.3256587982	86.51997375	1.0
48	0	-4.498080254	0	4.825785637	1.132830024	87.45762634	1.0
49	0	-4.498080254	0	6.210325718	1.345288515	88.14435577	1.0
50	0	-4.498080254	0	6.109331131	3.73517704	88.12324524	1.0
51	0	-4.498080254	0	5.923674583	8.011800766	87.4095993	1.0
[LeftFoot]
46	0	-3.729400158	0	-52.23879242	107.1104507	-4.429157257	1.0
47	0	-3.729400158	0	-47.58475113	104.7283707	-0.9541797638	1.0
48	0	-3.729400158	0	-44.72130966	101.6924362	2.028098106	1.0
49	0	-3.729400158	0	-32.74484253	99.78131866	14.38839722	1.0
50	0	-3.729400158	0	-19.12030029	99.77874756	25.82111359	1.0
51	0	-3.729400158	0	-28.00014877	104.1219788	15.50469589	1.0
[LeftToeBase]
46	0	-0.5911099911	1.364109993	0	0	0	1.0
47	0	-0.5911099911	1.364109993	0	0	0	1.0
48	0	-0.5911099911	1.364109993	0	0	0	1.0
49	0	-0.5911099911	1.364109993	0	0	0	1.0
50	0	-0.5911099911	1.364109993	0	0	0	1.0
51	0	-0.5911099911	1.364109993	0	0	0	1.0
[RightUpLeg]
46	-0.9094099998	0	0	-5.882990837	-12.0539484	76.24716187	1.0
47	-0.9094099998	0	0	-6.90777874	-11.94626999	77.58293152	1.0
48	-0.9094099998	0	0	-8.651363373	-15.09442711	79.03865051	1.0
49	-0.9094099998	0	0	-12.84119415	-18.84872818	82.52042389	1.0
50	-0.9094099998	0	0	-17.76421738	-18.07555389	86.37435913	1.0
51	-0.9094099998	0	0	-17.87116051	-23.03561783	89.03662109	1.0
[RightLeg]
46	0	-4.498080254	0	5.660017967	-10.10053635	83.77113342	1.0
47	0	-4.498080254	0	11.34805202	-8.670952797	83.09938049	1.0
48	0	-4.498080254	0	16.6672287	-9.692781448	81.82491302	1.0
49	0	-4.498080254	0	24.24640274	-3.73131752	80.1289978	1.0
50	0	-4.498080254	0	32.43198013	2.322694063	82.20436859	1.0
51	0	-4.498080254	0	34.19168472	3.686887741	82.21055603	1.0
[RightFoot]
46	0	-3.729400158	0	93.54263306	46.50440216	103.9780273	1.0
47	0	-3.729400158	0	83.89752197	44.60554886	105.3390198	1.0
48	0	-3.729400158	0	79.47496033	46.15710068	112.4887314	1.0
49	0	-3.729400158	0	71.05008698	48.59663773	114.490593	1.0
50	0	-3.729400158	0	56.82012177	50.88991165	104.3412552	1.0
51	0	-3.729400158	0	55.90894699	52.98761749	106.8363495	1.0
[RightToeBase]
46	0	-0.5911099911	1.364109993	0	0	0	1.0
47	0	-0.5911099911	1.364109993	0	0	0	1.0
48	0	-0.5911099911	1.364109993	0	0	0	1.0
49	0	-0.5911099911	1.364109993	0	0	0	1.0
50	0	-0.5911099911	1.364109993	0	0	0	1.0
51	0	-0.5911099911	1.364109993	0	0	0	1.0
[EndOfFile]
